<?xml version="1.0" encoding="utf-8"?>
<!-- Generator: Adobe Illustrator 16.0.0, SVG Export Plug-In . SVG Version: 6.00 Build 0)  -->
<!DOCTYPE svg PUBLIC "-//W3C//DTD SVG 1.1//EN" "http://www.w3.org/Graphics/SVG/1.1/DTD/svg11.dtd">
<svg version="1.1" id="Layer_1" xmlns="http://www.w3.org/2000/svg" xmlns:xlink="http://www.w3.org/1999/xlink" x="0px" y="0px"
	 width="530.323px" height="162.536px" viewBox="0 0 530.323 162.536" enable-background="new 0 0 530.323 162.536"
	 xml:space="preserve">
<path fill="#2CAAE1" d="M200,19.24c-7.358,3.264-15.267,5.469-23.566,6.461c8.471-5.078,14.978-13.119,18.041-22.701
	c-7.929,4.703-16.71,8.117-26.057,9.957C160.934,4.982,150.27,0,138.468,0c-22.66,0-41.033,18.371-41.033,41.031
	c0,3.216,0.363,6.348,1.062,9.351C64.396,48.671,34.161,32.335,13.924,7.51c-3.532,6.06-5.556,13.108-5.556,20.628
	c0,14.236,7.244,26.795,18.254,34.153c-6.726-0.213-13.053-2.059-18.585-5.132c-0.004,0.171-0.004,0.343-0.004,0.516
	c0,19.88,14.144,36.464,32.915,40.234c-3.443,0.938-7.068,1.439-10.81,1.439c-2.644,0-5.214-0.258-7.72-0.736
	c5.222,16.301,20.375,28.165,38.331,28.495c-14.043,11.006-31.735,17.565-50.96,17.565c-3.312,0-6.578-0.194-9.788-0.574
	c18.159,11.643,39.727,18.437,62.899,18.437c75.473,0,116.746-62.524,116.746-116.747c0-1.779-0.04-3.548-0.119-5.309
	C187.543,34.695,194.499,27.469,200,19.24z"/>
<g>
	<path fill="#292F33" d="M319.137,13.005l45.593,116.26h-11.887l-14.166-36.148h-52.92l-14.003,36.148H260.03l46.731-116.26H319.137
		z M334.932,83.673l-22.471-59.595l-23.285,59.595H334.932z"/>
	<path fill="#292F33" d="M437.838,129.266v-15.958h-0.326c-1.086,2.715-2.687,5.211-4.803,7.49c-2.117,2.28-4.534,4.208-7.246,5.781
		c-2.715,1.574-5.618,2.793-8.712,3.663c-3.094,0.867-6.162,1.303-9.199,1.303c-6.406,0-11.969-1.168-16.69-3.501
		s-8.657-5.536-11.805-9.606c-3.15-4.071-5.482-8.793-7.002-14.166c-1.521-5.374-2.279-11.045-2.279-17.017
		c0-5.969,0.758-11.642,2.279-17.015c1.52-5.374,3.852-10.096,7.002-14.167c3.147-4.07,7.083-7.299,11.805-9.688
		c4.722-2.386,10.284-3.583,16.69-3.583c3.146,0,6.213,0.382,9.199,1.14c2.984,0.761,5.781,1.929,8.386,3.501
		c2.605,1.575,4.91,3.501,6.92,5.781c2.008,2.279,3.555,4.941,4.641,7.979h0.326V13.005h10.259v116.26H437.838z M381.58,100.2
		c1.03,4.29,2.658,8.116,4.885,11.479c2.224,3.366,5.073,6.105,8.549,8.223c3.473,2.117,7.652,3.176,12.538,3.176
		c5.426,0,10.014-1.059,13.759-3.176s6.783-4.856,9.118-8.223c2.333-3.363,4.016-7.189,5.048-11.479
		c1.031-4.287,1.547-8.602,1.547-12.945c0-4.34-0.516-8.654-1.547-12.945c-1.032-4.287-2.715-8.113-5.048-11.479
		c-2.335-3.364-5.373-6.106-9.118-8.223c-3.745-2.117-8.333-3.175-13.759-3.175c-4.886,0-9.065,1.058-12.538,3.175
		c-3.476,2.116-6.325,4.859-8.549,8.223c-2.227,3.366-3.854,7.192-4.885,11.479c-1.033,4.291-1.547,8.605-1.547,12.945
		C380.033,91.599,380.547,95.913,381.58,100.2z"/>
	<path fill="#292F33" d="M515.181,61.61c-1.196-2.333-2.796-4.259-4.804-5.781c-2.01-1.519-4.315-2.631-6.92-3.338
		c-2.605-0.705-5.373-1.058-8.305-1.058c-2.279,0-4.587,0.244-6.92,0.732c-2.336,0.489-4.479,1.303-6.432,2.443
		c-1.955,1.14-3.529,2.633-4.723,4.478c-1.195,1.847-1.791,4.126-1.791,6.839c0,2.28,0.57,4.208,1.71,5.78
		c1.14,1.575,2.577,2.905,4.314,3.989c1.735,1.086,3.637,1.982,5.7,2.688c2.061,0.707,3.96,1.276,5.698,1.709l13.678,3.094
		c2.931,0.435,5.834,1.221,8.712,2.361c2.874,1.139,5.426,2.633,7.652,4.478c2.224,1.847,4.043,4.126,5.455,6.839
		c1.409,2.715,2.116,5.917,2.116,9.607c0,4.56-1.033,8.441-3.094,11.642c-2.063,3.203-4.696,5.809-7.897,7.816
		c-3.202,2.01-6.812,3.444-10.828,4.314c-4.017,0.867-7.979,1.303-11.886,1.303c-9.88,0-17.887-2.333-24.018-7.002
		c-6.134-4.666-9.636-12.156-10.502-22.47h10.258c0.433,6.947,2.956,12.187,7.571,15.712c4.612,3.529,10.34,5.293,17.179,5.293
		c2.496,0,5.073-0.271,7.734-0.814c2.659-0.542,5.129-1.466,7.408-2.769c2.28-1.302,4.152-2.956,5.618-4.966
		c1.465-2.007,2.198-4.479,2.198-7.409c0-2.495-0.517-4.584-1.547-6.269c-1.033-1.682-2.418-3.094-4.152-4.233
		c-1.738-1.141-3.72-2.089-5.943-2.85c-2.226-0.758-4.478-1.409-6.758-1.954l-13.189-2.931c-3.365-0.867-6.459-1.873-9.28-3.013
		c-2.824-1.14-5.292-2.55-7.409-4.233c-2.116-1.682-3.772-3.745-4.966-6.188c-1.196-2.442-1.792-5.455-1.792-9.037
		c0-4.233,0.949-7.869,2.851-10.91c1.897-3.038,4.367-5.48,7.408-7.327c3.038-1.845,6.432-3.201,10.178-4.07
		c3.744-0.868,7.461-1.303,11.153-1.303c4.233,0,8.167,0.545,11.805,1.628c3.636,1.086,6.839,2.769,9.607,5.047
		c2.768,2.28,4.966,5.104,6.594,8.467c1.629,3.366,2.55,7.328,2.769,11.887h-10.259C517.025,66.685,516.373,63.945,515.181,61.61z"
		/>
</g>
</svg>
